HIERARCHY
ROOT Hips
{
	OFFSET -3.958830 18.904000 13.208200
	CHANNELS 6 Xposition Yposition Zposition Zrotation Yrotation Xrotation 
	JOINT LHipJoint
	{
		OFFSET 0.000000 0.000000 0.000000
		CHANNELS 3 Zrotation Yrotation Xrotation
		JOINT LeftUpLeg
		{
			OFFSET 1.800000 -1.400000 0.085000
			CHANNELS 3 Zrotation Yrotation Xrotation
			JOINT LeftLeg
			{
				OFFSET 2.215000 -6.000000 0.000000
				CHANNELS 3 Zrotation Yrotation Xrotation
				JOINT LeftFoot
				{
					OFFSET 2.500000 -6.900000 0.000000
					CHANNELS 3 Zrotation Yrotation Xrotation
					JOINT LeftToeBase
					{
						OFFSET 0.200000 -0.500000 1.950000
						CHANNELS 3 Zrotation Yrotation Xrotation
						End Site
						{
							OFFSET 0.000000 0.000000 0.000000
						}
					}
				}
			}
		}
	}
	JOINT RHipJoint
	{
		OFFSET 0.000000 0.000000 0.000000
		CHANNELS 3 Zrotation Yrotation Xrotation
		JOINT RightUpLeg
		{
			OFFSET -1.800000 -1.400000 0.085000
			CHANNELS 3 Zrotation Yrotation Xrotation
			JOINT RightLeg
			{
				OFFSET -2.215000 -6.000000 0.000000
				CHANNELS 3 Zrotation Yrotation Xrotation
				JOINT RightFoot
				{
					OFFSET -2.500000 -6.900000 0.000000
					CHANNELS 3 Zrotation Yrotation Xrotation
					JOINT RightToeBase
					{
						OFFSET -0.200000 -0.500000 1.950000
						CHANNELS 3 Zrotation Yrotation Xrotation
						End Site
						{
							OFFSET 0.000000 0.000000 0.000000
						}
					}
				}
			}
		}
	}
	JOINT LowerBack
	{
		OFFSET 0.000000 0.000000 0.000000
		CHANNELS 3 Zrotation Yrotation Xrotation
		JOINT Spine
		{
			OFFSET -0.087000 1.940000 -0.288900
			CHANNELS 3 Zrotation Yrotation Xrotation
			JOINT Spine1
			{
				OFFSET 0.000000 1.950000 0.060000
				CHANNELS 3 Zrotation Yrotation Xrotation
				JOINT Neck
				{
					OFFSET 0.000000 0.000000 0.000000
					CHANNELS 3 Zrotation Yrotation Xrotation
					JOINT Neck1
					{
						OFFSET 0.000000 1.600000 0.340000
						CHANNELS 3 Zrotation Yrotation Xrotation
						JOINT Head
						{
							OFFSET 0.000000 1.667000 -0.240000
							CHANNELS 3 Zrotation Yrotation Xrotation
							End Site
							{
								OFFSET 0.000000 0.000000 0.000000
							}
						}
					}
				}
				JOINT LeftShoulder
				{
					OFFSET 0.000000 0.000000 0.000000
					CHANNELS 3 Zrotation Yrotation Xrotation
					JOINT LeftArm
					{
						OFFSET 2.700000 1.550000 -0.730000
						CHANNELS 3 Zrotation Yrotation Xrotation
						JOINT LeftForeArm
						{
							OFFSET 5.450000 0.000000 0.000000
							CHANNELS 3 Zrotation Yrotation Xrotation
							JOINT LeftHand
							{
								OFFSET 3.450000 0.000000 0.000000
								CHANNELS 3 Zrotation Yrotation Xrotation
								JOINT LeftHandIndex1
								{
									OFFSET 0.750000 0.000000 0.000000
									CHANNELS 3 Zrotation Yrotation Xrotation
									End Site
									{
										OFFSET 0.000000 0.000000 0.000000
									}
								}
							}
						}
					}
				}
				JOINT RightShoulder
				{
					OFFSET 0.000000 0.000000 0.000000
					CHANNELS 3 Zrotation Yrotation Xrotation
					JOINT RightArm
					{
						OFFSET -2.700000 1.550000 -0.730000
						CHANNELS 3 Zrotation Yrotation Xrotation
						JOINT RightForeArm
						{
							OFFSET -5.450000 0.000000 0.000000
							CHANNELS 3 Zrotation Yrotation Xrotation
							JOINT RightHand
							{
								OFFSET -3.450000 0.000000 0.000000
								CHANNELS 3 Zrotation Yrotation Xrotation
								JOINT RightHandIndex1
								{
									OFFSET -0.750000 0.000000 0.000000
									CHANNELS 3 Zrotation Yrotation Xrotation
									End Site
									{
										OFFSET 0.000000 0.000000 0.000000
									}
								}
							}
						}
					}
				}
			}
		}
	}
}
MOTION
Frames: 9
Frame Time: 0.016667
0.374340 14.212800 -2.327260 -34.434924 4.640175 56.823815 -15.844356 7.126036 8.242381 -0.309462 -28.931860 -87.940542 9.760547 6.421921 74.821476 1.577445 11.815130 0.480971 1.312390 1.124680 1.270620 18.867591 -5.651574 5.031603 -21.171879 10.651996 -60.653085 23.688723 -16.911614 45.310363 -1.759113 -8.377982 1.061656 0.253140 -0.475650 0.497310 -3.556083 -0.986858 -11.055018 5.872153 2.123208 51.806040 -7.219865 6.887187 6.908317 1.805021 -1.825811 -12.949978 -6.113745 5.219547 38.135427 -1.612850 7.119690 -26.250070 5.829385 -33.360648 0.957327 2.506457 -31.857182 -4.703429 20.731750 -0.342804 -2.550295 -3.837760 3.375964 0.472790 -0.350220 0.570180 0.106900 -9.910685 37.560097 2.817289 14.790555 30.261244 -16.002931 0.460662 51.994269 -1.669750 1.711415 -2.074674 0.602300 -0.214790 -0.559460 -0.160310 
0.339410 14.200000 -2.328880 -35.506021 5.783050 56.599356 -15.822928 7.169158 8.234233 2.477115 -27.675569 -88.882691 4.875632 9.348396 73.973021 1.607474 11.984509 0.430025 1.288940 1.094250 1.268740 18.880284 -5.734587 5.035551 -17.449324 11.680464 -62.797516 14.938554 -13.642003 47.390319 -1.535249 -7.539532 1.321121 0.223570 -0.488480 0.494050 -3.586924 -0.922360 -11.005153 7.306709 1.696878 51.783300 -7.170962 6.984097 5.641185 1.937379 -1.509169 -12.204131 -5.448440 4.971180 38.053231 -2.278530 7.432750 -26.495910 4.258939 -32.434381 0.903256 2.122064 -33.242932 -4.387119 20.619389 -0.838876 -2.559093 -3.807151 3.371686 0.471430 -0.349190 0.562340 0.089940 -8.657201 36.367941 2.911869 15.781986 29.312019 -15.661841 4.824420 54.512290 0.059047 1.737527 -2.101775 0.604050 -0.238190 -0.555540 -0.171000 
0.301840 14.141520 -2.340420 -34.395914 8.703080 56.586973 -15.790652 7.117225 8.223609 3.176938 -29.056459 -87.570573 -4.046742 11.821166 65.496289 1.483444 10.929668 0.738977 1.320420 1.180890 1.265880 18.918451 -5.722901 5.119785 -14.546813 11.165045 -66.180617 6.436328 -11.461209 51.916623 -1.515532 -7.571082 1.311802 0.246960 -0.503440 0.524480 -3.626312 -1.020604 -10.976259 9.948648 -0.374467 50.577909 -6.600218 5.478840 5.399390 1.962933 -0.632291 -10.914344 -3.707684 4.630748 37.384011 -3.531690 7.986510 -26.554450 3.533696 -31.114436 0.735429 0.768045 -35.193599 -3.220025 19.437316 0.022437 -2.277811 -3.810265 3.416544 0.404650 -0.319530 0.584260 0.111510 -8.147572 33.428667 2.817368 17.422405 27.561734 -14.900443 12.938454 58.824050 3.564359 1.789096 -2.205119 0.666940 -0.282580 -0.596450 -0.134040 
0.246170 14.093210 -2.346160 -33.148734 11.355825 55.987449 -15.835500 7.138013 8.191712 0.934036 -30.647037 -84.245201 -6.204117 10.960366 60.148694 1.290718 9.845867 1.078864 1.241240 1.124830 1.203250 18.903635 -5.549015 5.207173 -9.933467 11.611255 -69.821069 -5.327531 -6.949048 57.689303 -1.546769 -7.816269 1.258454 0.216070 -0.453840 0.519620 -3.476064 -1.486312 -11.003288 11.152494 -1.532902 50.459829 -4.740137 4.275942 5.436544 2.090456 0.520544 -10.310718 -1.715323 3.477616 36.898806 -4.971620 7.807040 -26.008110 3.621118 -29.748789 0.625207 -0.843672 -36.250897 -2.081993 18.855106 -0.133746 -2.192573 -3.843874 3.381454 0.375460 -0.268650 0.551760 0.093730 -8.460667 30.752536 3.363501 17.385588 24.054701 -15.310861 22.940255 64.156175 8.982667 1.791680 -2.291623 0.644310 -0.261050 -0.548130 -0.125330 
0.186820 14.011530 -2.370820 -33.520920 13.433077 55.062869 -15.869054 7.163498 8.004869 0.461054 -30.950566 -81.885627 -10.056923 11.816084 56.700389 1.206787 9.657496 1.204685 1.129510 0.966640 1.132970 18.897804 -5.265292 5.460888 -7.760742 12.510193 -73.823051 -12.386943 -3.791603 61.752380 -1.636722 -8.487543 1.083670 0.179550 -0.301030 0.519680 -3.347185 -1.947707 -11.062821 12.572832 -2.179279 49.629801 -2.933084 3.743684 5.975009 2.217357 1.601455 -9.862305 0.109800 2.314819 36.112967 -5.258000 7.088380 -22.496590 3.382373 -28.168117 0.294144 -2.579043 -37.780424 -0.521146 18.027504 0.345696 -2.152333 -3.968655 3.303802 0.346880 -0.158250 0.443120 0.087090 -8.500969 28.027426 4.301782 15.257891 19.713461 -14.461088 39.136693 68.032617 19.066121 1.799405 -2.384639 0.548940 -0.187070 -0.457910 -0.137520 
0.131840 13.928280 -2.383810 -33.261063 14.587366 53.507995 -15.954974 7.304211 7.835716 -0.487545 -31.480067 -78.956603 -13.351572 12.452645 53.422476 1.175767 9.418945 1.355263 1.054500 0.893750 1.041570 18.833130 -4.976366 5.593776 -7.706588 12.373762 -76.766218 -15.991778 -2.206990 66.526822 -1.793144 -9.503097 0.837570 0.180160 -0.142430 0.520530 -3.075551 -2.669789 -11.104907 11.992628 -2.127225 49.517233 -0.456084 2.855054 6.826094 2.317345 2.555579 -9.527773 1.740973 2.184090 35.393395 -5.345160 7.271890 -18.497500 3.398552 -26.685972 0.139042 -3.896087 -38.475665 0.759691 16.964420 0.794023 -2.010214 -4.085010 3.265917 0.271200 -0.031850 0.347300 0.132420 -8.679454 25.597395 4.932392 11.734175 16.648499 -12.552943 55.302394 68.760589 28.627548 1.899328 -2.354968 0.486820 -0.118730 -0.413270 -0.111070 
0.096720 13.843040 -2.373080 -34.057068 15.515012 50.590501 -15.975738 7.510203 7.644439 -1.009774 -30.887678 -75.570693 -15.379742 13.214355 52.300736 1.348012 9.512238 1.412520 0.947160 0.751970 0.971550 18.797157 -4.882077 5.671715 -8.640184 12.168188 -77.541011 -15.946486 -2.780479 71.195907 -1.944446 -10.337560 0.641264 0.064870 -0.064390 0.551350 -2.957369 -3.096827 -11.128183 12.802835 -2.990032 51.486512 0.036521 2.390709 6.592512 2.886411 2.900380 -10.182694 1.915353 1.966503 36.637874 -6.049560 7.591180 -14.590860 2.091857 -26.438178 0.408900 -3.584934 -38.029497 0.759228 15.601716 0.899366 -1.771510 -4.118534 3.269327 0.214400 0.020330 0.309530 0.156430 -8.457988 24.778340 6.324206 8.071011 12.331929 -11.658396 71.851171 69.389392 38.207438 2.173641 -2.187824 0.495360 -0.145980 -0.395400 -0.072420 
0.090100 13.761000 -2.347100 -34.448422 16.045127 47.336453 -15.907991 7.613474 7.473579 -1.443264 -30.401373 -72.441917 -17.264329 14.223960 52.314104 1.516309 9.802850 1.373705 0.888190 0.670670 0.950580 18.835142 -5.002829 5.682739 -9.300162 11.901969 -77.272856 -16.596733 -2.870959 74.711882 -2.066746 -10.926766 0.524437 -0.001820 -0.070600 0.515820 -3.087296 -3.023033 -11.112658 14.750392 -5.229221 53.906429 -1.878757 1.393290 6.362745 3.704401 2.726207 -10.659077 1.131791 2.117127 38.851411 -7.107110 8.028690 -12.164480 0.382723 -26.281450 0.766168 -2.231178 -36.907985 -0.029131 14.538452 -0.177466 -1.643432 -4.070847 3.236436 0.202260 0.015280 0.289860 0.158110 -8.362873 24.002106 6.982178 5.945705 9.593184 -11.242255 83.366458 70.071055 45.623227 2.457520 -1.909183 0.485070 -0.160140 -0.404600 -0.076010 
0.111490 13.702900 -2.319310 -37.321187 14.899382 44.149799 -15.784080 7.580680 7.226382 0.249713 -28.042122 -71.675699 -18.984656 15.719890 53.014674 1.624390 10.455059 1.198413 0.840670 0.563230 0.978410 18.932233 -5.122121 5.902585 -8.327002 14.293626 -77.160817 -17.390649 -2.006849 76.555416 -2.143468 -11.194347 0.452683 -0.055160 -0.053380 0.518310 -3.392638 -2.492083 -11.075360 17.361576 -7.002799 56.358671 -5.261121 1.534419 6.565398 4.661719 2.526315 -10.615284 0.566738 1.855342 40.201599 -7.940450 7.713370 -11.073270 -1.264715 -25.764104 0.781667 -0.519793 -36.260899 -1.021870 14.566394 -0.654073 -1.749482 -4.097895 3.175789 0.223280 0.019420 0.269590 0.123480 -8.729597 23.203228 7.008303 4.871693 8.084499 -11.261908 91.061225 71.074770 51.851035 2.664780 -1.581176 0.453200 -0.146720 -0.368960 -0.104310 
